<svg width="40" height="40" viewBox="0 0 40 40" fill="none" xmlns="http://www.w3.org/2000/svg">
<g id="Frame">
<path id="Vector" d="M20 2.66675C10.4427 2.66675 2.66669 10.4427 2.66669 20.0001C2.66669 29.5574 10.4427 37.3334 20 37.3334C29.5574 37.3334 37.3334 29.5574 37.3334 20.0001C37.3334 10.4427 29.5574 2.66675 20 2.66675ZM15.5547 8.00008H24.4427C28.6094 8.00008 32 11.3894 32 15.5548V24.4428C32 28.6095 28.6107 32.0001 24.4453 32.0001H15.5573C11.3906 32.0001 8.00002 28.6107 8.00002 24.4454V15.5574C8.00002 11.3907 11.3894 8.00008 15.5547 8.00008ZM15.5547 10.6667C12.86 10.6667 10.6667 12.8614 10.6667 15.5574V24.4454C10.6667 27.1401 12.8613 29.3334 15.5573 29.3334H24.4453C27.14 29.3334 29.3334 27.1388 29.3334 24.4428V15.5548C29.3334 12.8601 27.1387 10.6667 24.4427 10.6667H15.5547ZM26.224 12.8881C26.7146 12.8881 27.112 13.2855 27.112 13.7761C27.112 14.2668 26.7146 14.6667 26.224 14.6667C25.7333 14.6667 25.3334 14.2668 25.3334 13.7761C25.3334 13.2855 25.7333 12.8881 26.224 12.8881ZM20 13.3334C23.676 13.3334 26.6667 16.3241 26.6667 20.0001C26.6667 23.6761 23.676 26.6667 20 26.6667C16.324 26.6667 13.3334 23.6761 13.3334 20.0001C13.3334 16.3241 16.324 13.3334 20 13.3334ZM20 16.0001C18.9392 16.0001 17.9217 16.4215 17.1716 17.1717C16.4214 17.9218 16 18.9392 16 20.0001C16 21.0609 16.4214 22.0784 17.1716 22.8285C17.9217 23.5787 18.9392 24.0001 20 24.0001C21.0609 24.0001 22.0783 23.5787 22.8284 22.8285C23.5786 22.0784 24 21.0609 24 20.0001C24 18.9392 23.5786 17.9218 22.8284 17.1717C22.0783 16.4215 21.0609 16.0001 20 16.0001Z" fill="#0E181D" fill-opacity="0.5"/>
</g>
</svg>
