<svg width="40" height="40" viewBox="0 0 40 40" fill="none" xmlns="http://www.w3.org/2000/svg">
<g id="Frame">
<path id="Vector" d="M8.6 3C5.5072 3 3 5.5072 3 8.6V31C3 34.0928 5.5072 36.6 8.6 36.6H31C34.0928 36.6 36.6 34.0928 36.6 31V8.6C36.6 5.5072 34.0928 3 31 3H8.6ZM10.2688 10.2H16.6187L21.1281 16.6078L26.6 10.2H28.6L22.0312 17.8906L30.1312 29.4H23.7828L18.55 21.9656L12.2 29.4H10.2L17.6469 20.6828L10.2688 10.2ZM13.3312 11.8L24.6172 27.8H27.0687L15.7828 11.8H13.3312Z" fill="#0E181D" fill-opacity="0.5"/>
</g>
</svg>
