<svg width="40" height="40" viewBox="0 0 40 40" fill="none" xmlns="http://www.w3.org/2000/svg">
<g id="Frame">
<path id="Vector" d="M20 2.6665C10.4427 2.6665 2.66669 10.4425 2.66669 19.9998C2.66669 29.5572 10.4427 37.3332 20 37.3332C29.5574 37.3332 37.3334 29.5572 37.3334 19.9998C37.3334 10.4425 29.5574 2.6665 20 2.6665ZM15.5547 7.99984H24.4427C28.6094 7.99984 32 11.3892 32 15.5545V24.4425C32 28.6092 28.6107 31.9998 24.4453 31.9998H15.5573C11.3906 31.9998 8.00002 28.6105 8.00002 24.4451V15.5571C8.00002 11.3905 11.3894 7.99984 15.5547 7.99984ZM15.5547 10.6665C12.86 10.6665 10.6667 12.8611 10.6667 15.5571V24.4451C10.6667 27.1398 12.8613 29.3332 15.5573 29.3332H24.4453C27.14 29.3332 29.3334 27.1385 29.3334 24.4425V15.5545C29.3334 12.8599 27.1387 10.6665 24.4427 10.6665H15.5547ZM26.224 12.8879C26.7146 12.8879 27.112 13.2852 27.112 13.7759C27.112 14.2665 26.7146 14.6665 26.224 14.6665C25.7333 14.6665 25.3334 14.2665 25.3334 13.7759C25.3334 13.2852 25.7333 12.8879 26.224 12.8879ZM20 13.3332C23.676 13.3332 26.6667 16.3238 26.6667 19.9998C26.6667 23.6758 23.676 26.6665 20 26.6665C16.324 26.6665 13.3334 23.6758 13.3334 19.9998C13.3334 16.3238 16.324 13.3332 20 13.3332ZM20 15.9998C18.9392 15.9998 17.9217 16.4213 17.1716 17.1714C16.4214 17.9216 16 18.939 16 19.9998C16 21.0607 16.4214 22.0781 17.1716 22.8283C17.9217 23.5784 18.9392 23.9998 20 23.9998C21.0609 23.9998 22.0783 23.5784 22.8284 22.8283C23.5786 22.0781 24 21.0607 24 19.9998C24 18.939 23.5786 17.9216 22.8284 17.1714C22.0783 16.4213 21.0609 15.9998 20 15.9998Z" fill="#DDDCFF"/>
</g>
</svg>
