<svg width="40" height="40" viewBox="0 0 40 40" fill="none" xmlns="http://www.w3.org/2000/svg">
<g id="Frame">
<path id="Vector" d="M8.80001 3.2002C5.70721 3.2002 3.20001 5.7074 3.20001 8.80019V31.2002C3.20001 34.293 5.70721 36.8002 8.80001 36.8002H31.2C34.2928 36.8002 36.8 34.293 36.8 31.2002V8.80019C36.8 5.7074 34.2928 3.2002 31.2 3.2002H8.80001ZM10.4688 10.4002H16.8188L21.3281 16.808L26.8 10.4002H28.8L22.2313 18.0908L30.3313 29.6002H23.9828L18.75 22.1658L12.4 29.6002H10.4L17.8469 20.883L10.4688 10.4002ZM13.5313 12.0002L24.8172 28.0002H27.2688L15.9828 12.0002H13.5313Z" fill="#DDDCFF"/>
</g>
</svg>
